<svg xmlns="http://www.w3.org/2000/svg" viewBox="0 0 1690 592" version="1.1"><path d="M562.2 18.2C562.9 17.3 564.2 16.5 565.1 17.8 582.6 35.2 599.8 52.8 617.3 70.1 591.1 97.3 564 123.6 537.5 150.5 502.2 185.8 466.9 221.2 431.6 256.5 411.5 276.7 391.3 296.7 371.3 316.9 328 360.3 284.7 403.7 241.6 447.1 230.9 437.2 221 426.6 210.6 416.4 178.3 384.1 146.1 351.6 113.8 319.3 93.9 299 73.6 279.1 53.6 258.9 40.5 245.8 27.5 232.6 14.3 219.7 32 201.6 50 183.8 67.9 165.9 121.3 219.3 174.6 272.7 227.9 326 232.5 330.4 236.6 335.3 241.5 339.3 348.4 232.2 455.3 125.3 562.2 18.2Z" fill="#f0141e"/><path d="M371.3 316.9C391.3 296.7 411.5 276.7 431.6 256.5 431.8 358.8 431.7 461.1 431.6 563.3 411.6 563.3 391.5 563.3 371.4 563.4 371.2 481.2 371.5 399.1 371.3 316.9Z" fill="#ffffff"/><path d="M53.6 258.9C73.6 279.1 93.9 299 113.8 319.3 113.8 400.7 113.8 482 113.8 563.3 93.7 563.3 73.6 563.3 53.5 563.3 53.5 461.8 53.4 360.4 53.6 258.9Z" fill="#ffffff"/><path d="M1173.6 345.4C1190.3 345.1 1207.1 345.3 1223.8 345.3 1223.8 417.4 1223.8 489.6 1223.8 561.7 1207.1 561.7 1190.3 561.8 1173.6 561.7 1173.7 489.6 1173.7 417.5 1173.6 345.4Z" fill="#ffffff"/><path d="M1269.6 345.4C1287.3 345.1 1305 345.3 1322.7 345.3 1322.6 357.9 1322.8 370.6 1322.5 383.3 1304.9 383.2 1287.3 383.3 1269.7 383.2 1269.6 370.6 1269.7 358 1269.6 345.4Z" fill="#ffffff"/><path d="M1540.4 405.4C1540.5 390.5 1540.4 375.6 1540.5 360.7 1557.1 360.7 1573.8 360.7 1590.5 360.7 1590.6 375.6 1590.5 390.5 1590.5 405.4 1606.2 405.4 1621.8 405.4 1637.4 405.4 1637.4 416.8 1637.4 428.1 1637.4 439.4 1621.8 439.5 1606.2 439.4 1590.5 439.4 1590.6 462.3 1590.4 485.1 1590.7 508 1590.8 514.6 1592.1 522 1597.5 526.4 1603.9 531.4 1612.7 531.3 1620.4 530.1 1626.2 529.3 1631.4 525.9 1637.4 526.2 1637.4 537.6 1637.4 549 1637.4 560.4 1624.9 563.8 1611.9 564.9 1599 564.8 1587.5 564.9 1575.7 563.9 1565.1 559.3 1557.6 556.2 1551 551 1547 543.9 1542 534.8 1540.5 524.3 1540.4 514 1540.4 489.2 1540.4 464.3 1540.4 439.4 1533.5 439.4 1526.6 439.5 1519.7 439.4 1519.7 428.1 1519.7 416.8 1519.7 405.4 1526.6 405.3 1533.5 405.4 1540.4 405.4Z" fill="#ffffff"/><path d="m537.3 398.8c-19.3 0.1-38.5 3.1-57.3 7.3-2.1-0.1-1.2 2.3-1.4 3.5 0.1 11.5 0 23.1 0.1 34.6 1.8-0.1 3.7 0.1 5.5-0.5 10-3.4 19.9-7 30.2-9.2 10.8-2.2 21.9-1.9 32.8-0.4 6.9 1.2 14.5 2.7 19.6 8 3.7 3.8 4.7 9.2 5 14.4-20.6 1.9-41.4 2.7-61.6 7.6-13 3.4-26.2 8.9-35 19.4-9.3 10.6-11.4 25.7-9.5 39.3 1.9 14.3 11.4 26.9 23.8 33.9 8.4 4.9 18.2 7 27.8 6.8 12.1 0.3 24.4-2 35.2-7.6 6.8-3.6 12.8-8.5 19-13 0 5.5 0 11 0 16.5 16.5 0 33 0 49.6 0 0-35.6 0-71.2 0-106.7 0.1-11.8-2.9-24.2-10.7-33.3-7-8.5-17.5-13.3-27.9-16.2-13.4-3.5-27.3-4.5-41.1-4.4-1.3 0-2.6 0-3.9 0zm34 87.3c0 9.9 0 19.7 0 29.6 0 1.4 0.1 3-1.2 3.9-8.7 6.7-19.8 10.8-30.9 10-8.2 0.3-18-2-22-9.9-2-6.1-2.1-13.2 1.1-18.9 3.9-6 11-8.7 17.8-10.2 11.6-2.3 23.5-3.3 35.3-4.4z" fill="#ffffff"/><path transform="scale(0.8,0.8)" d="M1327.4 500.7C1317.7 500.7 1308 501.5 1298.5 503.2 1279.5 506.7 1261.1 514.9 1246.9 528.2 1234.3 539.8 1225.3 555 1220.7 571.5 1216.5 586.5 1215.9 602.2 1216.8 617.7 1218.4 636.1 1224.3 654.5 1236 668.9 1247.2 683.2 1263 693.2 1280.1 699 1300.5 706.1 1322.3 707.8 1343.7 707.2 1369.7 707.4 1395.2 700.8 1419.3 691.4 1419.5 674.6 1419.4 657.7 1419.4 640.8 1416.5 641.1 1413.3 640.2 1410.9 642.1 1402.2 648.1 1392.6 652.7 1382.7 656.3 1364 663.7 1343.3 665 1323.6 661.7 1310.3 659.6 1296.7 653.8 1288.6 642.6 1282.8 635 1280.5 625.4 1279.6 616.1 1327.4 616 1375.2 616.1 1423 616 1422.9 596.9 1423.9 577.3 1418.4 558.7 1414.7 546.1 1408.4 534.1 1398.9 524.9 1387.6 513.2 1372 506.4 1356.2 503.4 1346.7 501.5 1337 500.7 1327.4 500.7zM1321 539.9C1323.6 539.8 1326.1 540 1328.7 540.3 1337.8 541 1347.3 544.5 1352.8 552.1 1358.7 559.9 1360.3 569.8 1360.7 579.3 1333.6 579.3 1306.5 579.4 1279.4 579.3 1280.4 569.3 1282.8 558.8 1290.2 551.4 1298.3 543.5 1309.7 540.1 1321 539.9z" fill="#ffffff"/><path d="M1396.8 407.5C1410.9 402.4 1426.1 400.9 1441 401.2 1452.8 401.2 1464.5 402.9 1475.9 405.6 1483.1 407.5 1490.6 409.1 1497.3 412.6 1497 425.6 1497.3 438.7 1497.1 451.8 1495.3 451.6 1493.3 452.1 1491.7 451.1 1473.8 439.5 1452.1 432.8 1430.6 435 1424.4 435.7 1417.9 437 1412.9 441 1408.1 445 1409.3 453.3 1414.5 456.4 1417.1 457.9 1420.1 458.8 1423 459.7 1442.1 465 1462.7 465.1 1480.8 474 1489.9 478.5 1497.9 486.1 1501.4 495.9 1505.9 508.1 1505.2 522.4 1498.9 533.9 1490.8 548.3 1475.5 557.1 1460 561.6 1436.9 567.8 1412.4 567.4 1389 563 1378.5 560.9 1368.1 557.9 1358.2 553.8 1358 540 1358.2 526.1 1358.2 512.3 1363.6 511.3 1367.2 516 1371.5 518.3 1391.2 529.5 1414.4 534.9 1437 531.9 1441.3 531.2 1445.8 530 1449.3 527.3 1454.6 523.4 1454.1 513.6 1447.9 510.9 1441.9 508.1 1435.3 507 1428.9 505.7 1410.5 502.5 1390.7 500.3 1375.3 488.7 1358.2 476.3 1353.8 450.5 1364.3 432.5 1371.6 420.5 1383.8 412.2 1396.8 407.5Z" fill="#ffffff"/><path d="M745.1 406.9C753.5 404.4 762.3 404.6 770.9 405.4 771.4 416.9 771 428.5 771.1 440 771 444.5 771.5 449 770.6 453.5 750 450.1 728.1 449.5 708.2 457 707.9 491.9 708.2 526.8 708.1 561.7 691.3 561.8 674.5 561.8 657.6 561.7 657.7 509.6 657.7 457.5 657.7 405.4 674.4 405.3 691.1 405.4 707.8 405.4 708.1 413 708.1 420.6 708.2 428.2 719 419 731 410.2 745.1 406.9Z" fill="#ffffff"/><path d="M779.9 405.4C797.6 405.4 815.2 405.4 832.8 405.4 844.9 441.2 856.8 477.1 869 512.9 881 477.1 892.9 441.3 904.8 405.4 922.1 405.4 939.4 405.4 956.7 405.5 936.6 457.5 916.6 509.7 896.4 561.8 877.5 561.7 858.6 561.8 839.6 561.7 819.8 509.6 799.7 457.6 779.9 405.4Z" fill="#ffffff"/><path d="M1271.2 405.4C1287.9 405.4 1304.7 405.3 1321.4 405.4 1321.4 457.5 1321.3 509.6 1321.4 561.6 1304.7 561.9 1287.9 561.7 1271.2 561.8 1271.2 509.6 1271.2 457.5 1271.2 405.4Z" fill="#ffffff"/></svg>