<?xml version="1.0" encoding="UTF-8" ?>
<!DOCTYPE svg PUBLIC "-//W3C//DTD SVG 1.1//EN" "http://www.w3.org/Graphics/SVG/1.1/DTD/svg11.dtd">
<svg width="1690pt" height="592pt" viewBox="0 0 1690 592" version="1.1" xmlns="http://www.w3.org/2000/svg">
  <path
     d=" M 562.15 18.24 C 562.94 17.30 564.20 16.48 565.08 17.82 C 582.57 35.19 599.81 52.81 617.34 70.13 C 591.08 97.26 564.01 123.63 537.47 150.50 C 502.15 185.81 466.90 221.19 431.58 256.49 C 411.53 276.69 391.32 296.72 371.29 316.93 C 328.03 360.30 284.74 403.65 241.57 447.10 C 230.90 437.23 221.01 426.55 210.63 416.37 C 178.30 384.07 146.12 351.63 113.80 319.32 C 93.85 299.04 73.61 279.07 53.58 258.88 C 40.50 245.82 27.54 232.64 14.34 219.71 C 32.02 201.61 50.04 183.83 67.94 165.94 C 121.25 219.32 174.59 272.67 227.92 326.04 C 232.50 330.40 236.63 335.25 241.53 339.27 C 348.37 232.22 455.30 125.27 562.15 18.24 Z"
     fill="#f0141e" />
  <path
     d=" M 371.29 316.93 C 391.32 296.72 411.53 276.69 431.58 256.49 C 431.76 358.77 431.67 461.06 431.62 563.34 C 411.56 563.31 391.49 563.29 371.43 563.36 C 371.22 481.21 371.50 399.07 371.29 316.93 Z"
     fill="#ffffff" />
  <path
     d=" M 53.58 258.88 C 73.61 279.07 93.85 299.04 113.80 319.32 C 113.84 400.65 113.79 481.98 113.82 563.31 C 93.72 563.33 73.61 563.30 53.51 563.33 C 53.52 461.84 53.38 360.36 53.58 258.88 Z"
     fill="#ffffff" />
  <path
     d=" M 1173.59 345.37 C 1190.32 345.10 1207.07 345.33 1223.81 345.25 C 1223.81 417.42 1223.80 489.58 1223.81 561.74 C 1207.08 561.69 1190.34 561.84 1173.61 561.67 C 1173.65 489.57 1173.70 417.47 1173.59 345.37 Z"
     fill="#ffffff" />
  <path
     d=" M 1269.60 345.35 C 1287.29 345.13 1304.98 345.31 1322.67 345.26 C 1322.56 357.93 1322.81 370.60 1322.54 383.27 C 1304.92 383.15 1287.30 383.25 1269.68 383.22 C 1269.59 370.60 1269.74 357.97 1269.60 345.35 Z"
     fill="#ffffff" />
  <path
     d=" M 1540.41 405.39 C 1540.45 390.49 1540.35 375.59 1540.47 360.69 C 1557.14 360.72 1573.82 360.72 1590.50 360.69 C 1590.60 375.59 1590.51 390.49 1590.54 405.39 C 1606.16 405.43 1621.79 405.35 1637.42 405.43 C 1637.39 416.76 1637.40 428.08 1637.41 439.41 C 1621.78 439.45 1606.15 439.40 1590.53 439.44 C 1590.61 462.28 1590.41 485.13 1590.65 507.97 C 1590.78 514.56 1592.14 522.02 1597.52 526.43 C 1603.92 531.41 1612.74 531.32 1620.39 530.14 C 1626.20 529.32 1631.43 525.90 1637.40 526.15 C 1637.42 537.55 1637.38 548.95 1637.42 560.35 C 1624.93 563.76 1611.93 564.86 1599.02 564.76 C 1587.53 564.87 1575.74 563.85 1565.07 559.28 C 1557.62 556.23 1550.97 550.95 1547.02 543.87 C 1542.00 534.81 1540.48 524.27 1540.42 514.03 C 1540.42 489.17 1540.40 464.31 1540.43 439.44 C 1533.52 439.40 1526.62 439.45 1519.72 439.41 C 1519.72 428.09 1519.74 416.76 1519.71 405.44 C 1526.61 405.34 1533.51 405.43 1540.41 405.39 Z"
     fill="#ffffff" />
  <path
     d="m 537.34415,398.8163 c -19.31001,0.0742 -38.52187,3.10625 -57.33749,7.33438 -2.08,-0.06 -1.19969,2.32062 -1.42969,3.54062 0.07,11.53 0,23.06 0.05,34.6 1.83,-0.13 3.73031,0.0888 5.52031,-0.48125 9.95,-3.38 19.87969,-6.95937 30.17969,-9.15937 10.79,-2.17 21.93062,-1.88063 32.79062,-0.44063 6.91,1.24 14.51938,2.70031 19.60938,7.97031 3.73,3.8 4.7,9.24094 4.95,14.36094 -20.57,1.94 -41.41969,2.67 -61.57969,7.6 -12.99,3.37 -26.16938,8.85875 -35.00938,19.36875 -9.27,10.63 -11.38124,25.73063 -9.53124,39.29063 1.86,14.33 11.36093,26.90937 23.81093,33.90937 8.37,4.85 18.15031,6.99125 27.77031,6.83125 12.11,0.27 24.40938,-2.01125 35.20938,-7.63125 6.78,-3.63 12.77062,-8.50937 18.99062,-13.00937 0.02,5.51 -6.2e-4,11.02062 0.009,16.54062 16.53,0.01 33.04969,-6.2e-4 49.57969,0.009 -0.05,-35.58 0.0209,-71.15032 -0.0391,-106.72032 0.07,-11.82 -2.86093,-24.16968 -10.66093,-33.32968 -7.05,-8.52 -17.47,-13.34969 -27.95,-16.17969 -13.39,-3.48 -27.27031,-4.52969 -41.07031,-4.37969 -1.28813,-0.0219 -2.57517,-0.0299 -3.86251,-0.025 z m 34.00313,87.30469 c 0,9.85 -0.01,19.7 0.0203,29.55 -0.03,1.35 0.08,3.03937 -1.25,3.85937 -8.73,6.74 -19.76969,10.84969 -30.87969,10.02969 -8.21,0.34 -17.95062,-2.02969 -22.04062,-9.87969 -2.03,-6.08 -2.09938,-13.23031 1.14062,-18.92031 3.91,-6 11.04,-8.73 17.75,-10.2 11.63,-2.33 23.46938,-3.34906 35.25938,-4.43906 z" 
     fill="#ffffff" />
  <path
     transform="scale(0.8,0.8)"
     d="M 1327.3613 500.65039 C 1317.6941 500.65039 1308.0254 501.53086 1298.5254 503.22461 C 1279.4879 506.66211 1261.0875 514.88828 1246.875 528.17578 C 1234.3 539.76328 1225.2633 554.98789 1220.7383 571.46289 C 1216.4883 586.47539 1215.8871 602.23828 1216.8496 617.73828 C 1218.4496 636.08828 1224.2629 654.47422 1235.9629 668.94922 C 1247.1504 683.17422 1263.0375 693.21328 1280.0625 698.98828 C 1300.4625 706.05078 1322.2758 707.80078 1343.7383 707.23828 C 1369.7258 707.40078 1395.2258 700.83828 1419.3008 691.42578 C 1419.5008 674.57578 1419.3633 657.71211 1419.3633 640.84961 C 1416.5258 641.06211 1413.2883 640.16328 1410.8633 642.05078 C 1402.1758 648.10078 1392.5504 652.67461 1382.6504 656.34961 C 1363.9879 663.66211 1343.2883 665.01289 1323.6133 661.71289 C 1310.3008 659.56289 1296.7371 653.77539 1288.5996 642.58789 C 1282.7746 634.97539 1280.5008 625.42578 1279.5508 616.05078 C 1327.3633 615.98828 1375.1621 616.0875 1422.9746 616 C 1422.9496 596.8625 1423.9492 577.29961 1418.3867 558.72461 C 1414.6992 546.13711 1408.3617 534.13672 1398.9492 524.88672 C 1387.5617 513.21172 1372.0125 506.42578 1356.1875 503.36328 C 1346.6938 501.53203 1337.0285 500.65039 1327.3613 500.65039 z M 1320.9551 539.89453 C 1323.5502 539.84897 1326.1375 539.97344 1328.6758 540.25 C 1337.7758 540.95 1347.2754 544.48672 1352.8379 552.07422 C 1358.6504 559.88672 1360.3117 569.83789 1360.6992 579.33789 C 1333.5992 579.33789 1306.5004 579.37422 1279.4004 579.32422 C 1280.3754 569.32422 1282.8258 558.7625 1290.1758 551.4375 C 1298.3211 543.475 1309.7096 540.09194 1320.9551 539.89453 z " 
     fill="#ffffff" />
  <path
     d=" M 1396.80 407.51 C 1410.90 402.39 1426.06 400.90 1440.98 401.24 C 1452.75 401.18 1464.46 402.91 1475.92 405.55 C 1483.14 407.49 1490.59 409.06 1497.26 412.56 C 1497.02 425.64 1497.30 438.73 1497.12 451.81 C 1495.31 451.62 1493.33 452.12 1491.73 451.14 C 1473.79 439.48 1452.08 432.82 1430.60 434.95 C 1424.41 435.69 1417.93 437.04 1412.92 440.96 C 1408.11 444.95 1409.33 453.28 1414.49 456.39 C 1417.12 457.91 1420.05 458.80 1422.95 459.68 C 1442.07 464.96 1462.71 465.10 1480.76 473.99 C 1489.94 478.49 1497.85 486.13 1501.38 495.86 C 1505.86 508.11 1505.15 522.35 1498.91 533.86 C 1490.81 548.32 1475.49 557.13 1459.96 561.57 C 1436.85 567.79 1412.39 567.36 1388.99 563.01 C 1378.49 560.86 1368.12 557.93 1358.22 553.79 C 1358.03 539.95 1358.16 526.12 1358.15 512.28 C 1363.57 511.33 1367.16 516.02 1371.54 518.28 C 1391.20 529.46 1414.43 534.92 1436.98 531.87 C 1441.32 531.20 1445.76 530.01 1449.34 527.33 C 1454.62 523.41 1454.14 513.62 1447.86 510.94 C 1441.89 508.12 1435.31 507.03 1428.91 505.71 C 1410.48 502.48 1390.69 500.33 1375.25 488.74 C 1358.18 476.27 1353.76 450.47 1364.31 432.47 C 1371.56 420.47 1383.81 412.24 1396.80 407.51 Z"
     fill="#ffffff" />
  <path
     d=" M 745.06 406.86 C 753.46 404.42 762.28 404.57 770.91 405.39 C 771.42 416.91 771.01 428.45 771.11 439.98 C 771.00 444.47 771.54 449.01 770.64 453.46 C 749.97 450.09 728.10 449.46 708.22 457.04 C 707.89 491.92 708.21 526.81 708.10 561.70 C 691.28 561.75 674.45 561.81 657.63 561.67 C 657.70 509.59 657.65 457.51 657.65 405.44 C 674.38 405.34 691.11 405.44 707.83 405.38 C 708.12 412.99 708.08 420.61 708.22 428.22 C 719.04 418.97 730.96 410.19 745.06 406.86 Z"
     fill="#ffffff" />
  <path
     d=" M 779.94 405.42 C 797.55 405.37 815.15 405.40 832.76 405.40 C 844.85 441.24 856.84 477.11 869.04 512.90 C 880.98 477.08 892.88 441.25 904.80 405.43 C 922.11 405.39 939.43 405.35 956.74 405.45 C 936.55 457.51 916.63 509.69 896.43 561.75 C 877.50 561.73 858.57 561.76 839.63 561.74 C 819.80 509.60 799.68 457.58 779.94 405.42 Z"
     fill="#ffffff" />
  <path
     d=" M 1271.17 405.39 C 1287.91 405.44 1304.65 405.33 1321.39 405.44 C 1321.38 457.51 1321.30 509.58 1321.42 561.64 C 1304.67 561.88 1287.91 561.67 1271.16 561.75 C 1271.17 509.63 1271.15 457.51 1271.17 405.39 Z"
     fill="#ffffff" />
</svg>
