<svg xmlns="http://www.w3.org/2000/svg" viewBox="0 0 213 77 "  version="1.1">
  <defs>
    <style type="text/css">
      
       #MyRect {
         stroke: black;
		 stroke-width: 1;
         fill: white;
       }
       #check {
         stroke: black;
		 stroke-width: 1;
		 fill: #f0141e;
       }
    
    </style>
  </defs>
  <path id="check" d="M70.3 2.3C70.4 2.2 70.6 2.1 70.7 2.3 72.9 4.4 75 6.6 77.2 8.8 73.9 12.2 70.5 15.5 67.2 18.9 62.8 23.3 58.4 27.7 54 32.1 51.5 34.6 49 37.1 46.5 39.7 41 45.1 35.6 50.5 30.2 55.9 28.9 54.7 27.7 53.4 26.4 52.1 22.3 48.1 18.3 44 14.3 40 11.8 37.4 9.2 34.9 6.7 32.4 5.1 30.8 3.5 29.1 1.8 27.5 4 25.2 6.3 23 8.5 20.8 15.2 27.5 21.9 34.1 28.5 40.8 29.1 41.3 29.6 42 30.2 42.5 43.6 29.1 57 15.7 70.3 2.3z"/>
<path id="MyRect" d="M46.5 39.7C49 37.1 51.5 34.6 54 32.1 54 44.9 54 57.7 54 70.5 51.5 70.5 49 70.5 46.5 70.5 46.4 60.2 46.5 49.9 46.5 39.7z"/>
<path id="MyRect" d="M6.7 32.4C9.2 34.9 11.8 37.4 14.3 40 14.3 50.1 14.3 60.3 14.3 70.5 11.8 70.5 9.2 70.5 6.7 70.5 6.7 57.8 6.7 45.1 6.7 32.4z"/>
<path id="MyRect" d="M146.7 43.2C148.8 43.2 150.9 43.2 153 43.2 153 52.2 153 61.2 153 70.3 150.9 70.3 148.8 70.3 146.7 70.3 146.8 61.2 146.8 52.2 146.7 43.2z"/>
<path id="MyRect" d="M158.7 43.2C161 43.2 163.2 43.2 165.4 43.2 165.4 44.8 165.4 46.4 165.4 48 163.2 47.9 161 48 158.8 47.9 158.7 46.4 158.8 44.8 158.7 43.2z"/>
<path id="MyRect" d="M192.6 50.7C192.6 48.9 192.6 47 192.6 45.1 194.7 45.1 196.8 45.1 198.9 45.1 198.9 47 198.9 48.9 198.9 50.7 200.8 50.7 202.8 50.7 204.7 50.7 204.7 52.1 204.7 53.6 204.7 55 202.8 55 200.8 55 198.9 55 198.9 57.8 198.8 60.7 198.9 63.5 198.9 64.4 199.1 65.3 199.7 65.8 200.5 66.5 201.6 66.5 202.6 66.3 203.3 66.2 204 65.8 204.7 65.8 204.7 67.2 204.7 68.7 204.7 70.1 203.2 70.5 201.5 70.7 199.9 70.6 198.5 70.7 197 70.5 195.7 70 194.7 69.6 193.9 68.9 193.4 68 192.8 66.9 192.6 65.6 192.6 64.3 192.6 61.2 192.6 58.1 192.6 55 191.7 55 190.9 55 190 55 190 53.6 190 52.1 190 50.7 190.9 50.7 191.7 50.7 192.6 50.7z"/>
<path id="MyRect" d="M67.2 49.9c-2.4 0.1 -4.8 0.4 -7.1 1 -0.2 0 -0.1 0.3 -0.1 0.5 0.1 1.5 0 2.9 0.1 4.4 0.3 0 0.5 0.1 0.7 0 1.3 -0.4 2.5 -0.8 3.8 -1.1 1.4 -0.2 2.8 -0.2 4.1 0 0.9 0.2 1.9 0.4 2.5 1 0.5 0.5 0.6 1.2 0.7 1.8 -2.5 0.3 -5.1 0.4 -7.7 1 -1.6 0.5 -3.2 1.2 -4.3 2.5 -1.1 1.4 -1.4 3.3 -1.1 5 0.3 1.8 1.5 3.4 3 4.3 1.1 0.7 2.3 0.9 3.5 0.9 1.6 0.1 3.1 -0.2 4.4 -0.9 0.9 -0.4 1.6 -1 2.4 -1.6 0 0.7 0 1.4 0 2.1 2.1 0 4.2 0 6.2 0 0 -4.4 0 -8.9 0 -13.3 0.1 -1.4 -0.3 -3 -1.3 -4.1 -0.8 -1 -2.1 -1.6 -3.4 -2 -1.6 -0.4 -3.4 -0.5 -5.1 -0.5 -0.1 0 -0.3 0 -0.4 0zm4.3 11c0 1.3 0 2.5 0 3.7 0 0.2 0.1 0.4 -0.1 0.5 -1 0.9 -2.4 1.4 -3.8 1.3 -1 0.1 -2.2 -0.2 -2.7 -1.2 -0.2 -0.7 -0.2 -1.6 0.2 -2.3 0.5 -0.7 1.4 -1 2.3 -1.2 1.5 -0.2 3 -0.4 4.5 -0.5z"/>
<path id="MyRect" d="M132.8 50.1C131.8 50.1 130.8 50.2 129.9 50.4 128 50.7 126.2 51.5 124.7 52.9 123.5 54 122.6 55.5 122.1 57.2 121.7 58.7 121.6 60.3 121.7 61.8 121.9 63.7 122.5 65.5 123.6 66.9 124.8 68.4 126.3 69.4 128.1 69.9 130.1 70.7 132.3 70.8 134.4 70.8 137 70.8 139.6 70.1 142 69.2 142 67.5 142 65.8 142 64.1 141.7 64.2 141.4 64.1 141.1 64.3 140.3 64.9 139.3 65.3 138.3 65.7 136.4 66.4 134.4 66.5 132.4 66.2 131.1 66 129.7 65.4 128.9 64.3 128.3 63.5 128.1 62.6 128 61.7 132.8 61.6 137.6 61.7 142.3 61.6 142.3 59.7 142.4 57.8 141.9 55.9 141.5 54.7 140.9 53.5 139.9 52.5 138.8 51.4 137.2 50.7 135.7 50.4 134.7 50.2 133.7 50.1 132.8 50.1zM132.1 54C132.4 54 132.7 54 132.9 54.1 133.8 54.1 134.8 54.5 135.3 55.3 135.9 56 136.1 57 136.1 58 133.4 58 130.7 58 128 58 128.1 57 128.3 55.9 129.1 55.2 129.9 54.4 131 54.1 132.1 54z"/>
<path id="MyRect" d="M174.6 51C176.4 50.3 178.3 50.2 180.2 50.2 181.6 50.2 183.1 50.4 184.5 50.7 185.4 51 186.4 51.2 187.2 51.6 187.2 53.2 187.2 54.9 187.2 56.5 187 56.5 186.7 56.6 186.5 56.4 184.3 55 181.6 54.1 178.9 54.4 178.1 54.5 177.3 54.7 176.7 55.2 176.1 55.7 176.2 56.7 176.9 57.1 177.2 57.3 177.6 57.4 177.9 57.5 180.3 58.2 182.9 58.2 185.1 59.3 186.3 59.9 187.3 60.8 187.7 62 188.3 63.6 188.2 65.3 187.4 66.8 186.4 68.6 184.5 69.7 182.5 70.2 179.7 71 176.6 71 173.7 70.4 172.4 70.2 171.1 69.8 169.8 69.3 169.8 67.5 169.8 65.8 169.8 64.1 170.5 64 170.9 64.5 171.5 64.8 173.9 66.2 176.8 66.9 179.7 66.5 180.2 66.4 180.8 66.3 181.2 66 181.9 65.5 181.8 64.2 181 63.9 180.3 63.6 179.5 63.4 178.7 63.3 176.4 62.9 173.9 62.6 172 61.1 169.8 59.6 169.3 56.4 170.6 54.1 171.5 52.6 173 51.6 174.6 51z"/>
<path id="MyRect" d="M93.2 50.9C94.2 50.6 95.3 50.6 96.4 50.7 96.5 52.2 96.4 53.6 96.4 55 96.4 55.6 96.5 56.2 96.4 56.7 93.8 56.3 91.1 56.2 88.6 57.2 88.5 61.5 88.6 65.9 88.6 70.3 86.5 70.3 84.4 70.3 82.2 70.3 82.3 63.7 82.3 57.2 82.3 50.7 84.3 50.7 86.4 50.7 88.5 50.7 88.6 51.7 88.6 52.6 88.6 53.6 89.9 52.4 91.4 51.3 93.2 50.9z" />
<path id="MyRect" d="M97.5 50.7C99.7 50.7 101.9 50.7 104.1 50.7 105.7 55.2 107.1 59.7 108.7 64.2 110.2 59.7 111.7 55.2 113.1 50.7 115.3 50.7 117.5 50.7 119.6 50.7 117.1 57.2 114.6 63.8 112.1 70.3 109.7 70.3 107.4 70.3 105 70.3 102.5 63.7 100 57.2 97.5 50.7z"/>
<path id="MyRect" d="M158.9 50.7C161 50.7 163.1 50.7 165.2 50.7 165.2 57.2 165.2 63.7 165.2 70.2 163.1 70.3 161 70.3 158.9 70.3 158.9 63.7 158.9 57.2 158.9 50.7z"/>

</svg>